<svg width="60" height="60" viewBox="0 0 60 60" fill="none" xmlns="http://www.w3.org/2000/svg">
<path d="M58.866 30.5C59.0447 30.1906 59.0447 29.8094 58.866 29.5L44.866 5.25129C44.6874 4.94189 44.3573 4.75129 44 4.75129L16 4.75129C15.6427 4.75129 15.3126 4.94189 15.134 5.25129L1.13398 29.5C0.955344 29.8094 0.955344 30.1906 1.13398 30.5L15.134 54.7487C15.3126 55.0581 15.6427 55.2487 16 55.2487L44 55.2487C44.3573 55.2487 44.6874 55.0581 44.866 54.7487L58.866 30.5Z" stroke="#F2CA06" stroke-width="2" stroke-linecap="round" stroke-linejoin="round"/>
<g filter="url(#filter0_d)">
<path d="M17 40V21H17.9492V40H17ZM18.4163 39.9865V21H18.8984V39.9865H18.4163ZM19.8476 39.9865V21H20.3147V39.9865H19.8476ZM22.2132 39.9865V21H22.6802V39.9865H22.2132ZM24.1116 39.9865V21H25.0457V39.9865H24.1116ZM26.4771 39.9865V21H26.9442V39.9865H26.4771ZM27.4264 39.9865V21H27.8934V39.9865H27.4264ZM28.3755 39.9865V21H28.8426V39.9865H28.3755ZM30.2589 39.9865V21H31.2082V39.9865H30.2589ZM32.6245 39.9865V21H33.5736V39.9865H32.6245ZM34.5228 39.9865V21H35.4721V39.9865H34.5228ZM36.4214 39.9865V21H37.3706V39.9865H36.4214ZM37.8376 39.9865V21H38.7868V39.9865H37.8376ZM40.2182 39.9865V21H41.6345V39.9865H40.2182ZM42.1016 39.9865V21H42.5837V39.9865H42.1016ZM43.0508 40V21H44V40H43.0508Z" fill="white"/>
</g>
<defs>
<filter id="filter0_d" x="7" y="11" width="47" height="39" filterUnits="userSpaceOnUse" color-interpolation-filters="sRGB">
<feFlood flood-opacity="0" result="BackgroundImageFix"/>
<feColorMatrix in="SourceAlpha" type="matrix" values="0 0 0 0 0 0 0 0 0 0 0 0 0 0 0 0 0 0 127 0"/>
<feOffset/>
<feGaussianBlur stdDeviation="5"/>
<feColorMatrix type="matrix" values="0 0 0 0 0.0941176 0 0 0 0 0.419608 0 0 0 0 0.482353 0 0 0 1 0"/>
<feBlend mode="normal" in2="BackgroundImageFix" result="effect1_dropShadow"/>
<feBlend mode="normal" in="SourceGraphic" in2="effect1_dropShadow" result="shape"/>
</filter>
</defs>
</svg>
