<svg width="60" height="60" viewBox="0 0 60 60" fill="none" xmlns="http://www.w3.org/2000/svg">
<path d="M58.866 30.5C59.0447 30.1906 59.0447 29.8094 58.866 29.5L44.866 5.25129C44.6874 4.94189 44.3573 4.75129 44 4.75129L16 4.75129C15.6427 4.75129 15.3126 4.94189 15.134 5.25129L1.13398 29.5C0.955344 29.8094 0.955344 30.1906 1.13398 30.5L15.134 54.7487C15.3126 55.0581 15.6427 55.2487 16 55.2487L44 55.2487C44.3573 55.2487 44.6874 55.0581 44.866 54.7487L58.866 30.5Z" stroke="#F2CA06" stroke-width="2" stroke-linecap="round" stroke-linejoin="round"/>
<g filter="url(#filter0_d)">
<path d="M17 38.75C17 39.9922 18.0078 41 19.25 41H41.75C42.9922 41 44 39.9922 44 38.75V30.5H17V38.75ZM26 35.5625C26 35.2532 26.2531 35 26.5625 35H32.9375C33.2469 35 33.5 35.2532 33.5 35.5625V37.4375C33.5 37.7468 33.2469 38 32.9375 38H26.5625C26.2531 38 26 37.7468 26 37.4375V35.5625ZM20 35.5625C20 35.2532 20.2531 35 20.5625 35H23.9375C24.2469 35 24.5 35.2532 24.5 35.5625V37.4375C24.5 37.7468 24.2469 38 23.9375 38H20.5625C20.2531 38 20 37.7468 20 37.4375V35.5625ZM44 22.25V24.5H17V22.25C17 21.0078 18.0078 20 19.25 20H41.75C42.9922 20 44 21.0078 44 22.25Z" fill="white"/>
</g>
<defs>
<filter id="filter0_d" x="7" y="10" width="47" height="41" filterUnits="userSpaceOnUse" color-interpolation-filters="sRGB">
<feFlood flood-opacity="0" result="BackgroundImageFix"/>
<feColorMatrix in="SourceAlpha" type="matrix" values="0 0 0 0 0 0 0 0 0 0 0 0 0 0 0 0 0 0 127 0"/>
<feOffset/>
<feGaussianBlur stdDeviation="5"/>
<feColorMatrix type="matrix" values="0 0 0 0 0.0941176 0 0 0 0 0.419608 0 0 0 0 0.482353 0 0 0 1 0"/>
<feBlend mode="normal" in2="BackgroundImageFix" result="effect1_dropShadow"/>
<feBlend mode="normal" in="SourceGraphic" in2="effect1_dropShadow" result="shape"/>
</filter>
</defs>
</svg>
