<svg id="visual" viewBox="0 0 960 540" width="960" height="540" xmlns="http://www.w3.org/2000/svg" xmlns:xlink="http://www.w3.org/1999/xlink" version="1.1"><rect x="0" y="0" width="960" height="540" fill="#001220"></rect><path d="M0 377L13.3 368C26.7 359 53.3 341 80 332.3C106.7 323.7 133.3 324.3 160 325.8C186.7 327.3 213.3 329.7 240 331.5C266.7 333.3 293.3 334.7 320 335.2C346.7 335.7 373.3 335.3 400 340.8C426.7 346.3 453.3 357.7 480 359.8C506.7 362 533.3 355 560 354.2C586.7 353.3 613.3 358.7 640 358.7C666.7 358.7 693.3 353.3 720 354.8C746.7 356.3 773.3 364.7 800 361.7C826.7 358.7 853.3 344.3 880 339.8C906.7 335.3 933.3 340.7 946.7 343.3L960 346L960 541L946.7 541C933.3 541 906.7 541 880 541C853.3 541 826.7 541 800 541C773.3 541 746.7 541 720 541C693.3 541 666.7 541 640 541C613.3 541 586.7 541 560 541C533.3 541 506.7 541 480 541C453.3 541 426.7 541 400 541C373.3 541 346.7 541 320 541C293.3 541 266.7 541 240 541C213.3 541 186.7 541 160 541C133.3 541 106.7 541 80 541C53.3 541 26.7 541 13.3 541L0 541Z" fill="#f24f00"></path><path d="M0 366L13.3 374.3C26.7 382.7 53.3 399.3 80 398.8C106.7 398.3 133.3 380.7 160 376.8C186.7 373 213.3 383 240 382.7C266.7 382.3 293.3 371.7 320 368C346.7 364.3 373.3 367.7 400 370.5C426.7 373.3 453.3 375.7 480 383.7C506.7 391.7 533.3 405.3 560 409.8C586.7 414.3 613.3 409.7 640 408.8C666.7 408 693.3 411 720 403.3C746.7 395.7 773.3 377.3 800 368.2C826.7 359 853.3 359 880 363.3C906.7 367.7 933.3 376.3 946.7 380.7L960 385L960 541L946.7 541C933.3 541 906.7 541 880 541C853.3 541 826.7 541 800 541C773.3 541 746.7 541 720 541C693.3 541 666.7 541 640 541C613.3 541 586.7 541 560 541C533.3 541 506.7 541 480 541C453.3 541 426.7 541 400 541C373.3 541 346.7 541 320 541C293.3 541 266.7 541 240 541C213.3 541 186.7 541 160 541C133.3 541 106.7 541 80 541C53.3 541 26.7 541 13.3 541L0 541Z" fill="#fc3039"></path><path d="M0 388L13.3 394.3C26.7 400.7 53.3 413.3 80 418.5C106.7 423.7 133.3 421.3 160 420.5C186.7 419.7 213.3 420.3 240 419.3C266.7 418.3 293.3 415.7 320 410.7C346.7 405.7 373.3 398.3 400 404C426.7 409.7 453.3 428.3 480 434C506.7 439.7 533.3 432.3 560 421.7C586.7 411 613.3 397 640 394.3C666.7 391.7 693.3 400.3 720 406C746.7 411.7 773.3 414.3 800 411.3C826.7 408.3 853.3 399.7 880 398.7C906.7 397.7 933.3 404.3 946.7 407.7L960 411L960 541L946.7 541C933.3 541 906.7 541 880 541C853.3 541 826.7 541 800 541C773.3 541 746.7 541 720 541C693.3 541 666.7 541 640 541C613.3 541 586.7 541 560 541C533.3 541 506.7 541 480 541C453.3 541 426.7 541 400 541C373.3 541 346.7 541 320 541C293.3 541 266.7 541 240 541C213.3 541 186.7 541 160 541C133.3 541 106.7 541 80 541C53.3 541 26.7 541 13.3 541L0 541Z" fill="#fc0c5d"></path><path d="M0 458L13.3 455.2C26.7 452.3 53.3 446.7 80 447.8C106.7 449 133.3 457 160 456.3C186.7 455.7 213.3 446.3 240 439.7C266.7 433 293.3 429 320 434.3C346.7 439.7 373.3 454.3 400 459.7C426.7 465 453.3 461 480 453.2C506.7 445.3 533.3 433.7 560 429.3C586.7 425 613.3 428 640 428C666.7 428 693.3 425 720 429.7C746.7 434.3 773.3 446.7 800 445.8C826.7 445 853.3 431 880 427.3C906.7 423.7 933.3 430.3 946.7 433.7L960 437L960 541L946.7 541C933.3 541 906.7 541 880 541C853.3 541 826.7 541 800 541C773.3 541 746.7 541 720 541C693.3 541 666.7 541 640 541C613.3 541 586.7 541 560 541C533.3 541 506.7 541 480 541C453.3 541 426.7 541 400 541C373.3 541 346.7 541 320 541C293.3 541 266.7 541 240 541C213.3 541 186.7 541 160 541C133.3 541 106.7 541 80 541C53.3 541 26.7 541 13.3 541L0 541Z" fill="#f10081"></path><path d="M0 472L13.3 469.3C26.7 466.7 53.3 461.3 80 458.7C106.7 456 133.3 456 160 461.8C186.7 467.7 213.3 479.3 240 478.5C266.7 477.7 293.3 464.3 320 463.8C346.7 463.3 373.3 475.7 400 479.7C426.7 483.7 453.3 479.3 480 475C506.7 470.7 533.3 466.3 560 469.3C586.7 472.3 613.3 482.7 640 485.5C666.7 488.3 693.3 483.7 720 477.2C746.7 470.7 773.3 462.3 800 462C826.7 461.7 853.3 469.3 880 471.3C906.7 473.3 933.3 469.7 946.7 467.8L960 466L960 541L946.7 541C933.3 541 906.7 541 880 541C853.3 541 826.7 541 800 541C773.3 541 746.7 541 720 541C693.3 541 666.7 541 640 541C613.3 541 586.7 541 560 541C533.3 541 506.7 541 480 541C453.3 541 426.7 541 400 541C373.3 541 346.7 541 320 541C293.3 541 266.7 541 240 541C213.3 541 186.7 541 160 541C133.3 541 106.7 541 80 541C53.3 541 26.7 541 13.3 541L0 541Z" fill="#d300a9"></path><path d="M0 489L13.3 487.7C26.7 486.3 53.3 483.7 80 487.7C106.7 491.7 133.3 502.3 160 504.3C186.7 506.3 213.3 499.7 240 499.8C266.7 500 293.3 507 320 505.2C346.7 503.3 373.3 492.7 400 492.3C426.7 492 453.3 502 480 507.3C506.7 512.7 533.3 513.3 560 512.7C586.7 512 613.3 510 640 509.8C666.7 509.7 693.3 511.3 720 510.8C746.7 510.3 773.3 507.7 800 508.2C826.7 508.7 853.3 512.3 880 512.5C906.7 512.7 933.3 509.3 946.7 507.7L960 506L960 541L946.7 541C933.3 541 906.7 541 880 541C853.3 541 826.7 541 800 541C773.3 541 746.7 541 720 541C693.3 541 666.7 541 640 541C613.3 541 586.7 541 560 541C533.3 541 506.7 541 480 541C453.3 541 426.7 541 400 541C373.3 541 346.7 541 320 541C293.3 541 266.7 541 240 541C213.3 541 186.7 541 160 541C133.3 541 106.7 541 80 541C53.3 541 26.7 541 13.3 541L0 541Z" fill="#9400d3"></path></svg>