<svg width="60" height="60" viewBox="0 0 60 60" fill="none" xmlns="http://www.w3.org/2000/svg">
<path d="M58.866 30.5C59.0447 30.1906 59.0447 29.8094 58.866 29.5L44.866 5.25129C44.6874 4.94189 44.3573 4.75129 44 4.75129L16 4.75129C15.6427 4.75129 15.3126 4.94189 15.134 5.25129L1.13398 29.5C0.955344 29.8094 0.955344 30.1906 1.13398 30.5L15.134 54.7487C15.3126 55.0581 15.6427 55.2487 16 55.2487L44 55.2487C44.3573 55.2487 44.6874 55.0581 44.866 54.7487L58.866 30.5Z" stroke="#F2CA06" stroke-width="2" stroke-linecap="round" stroke-linejoin="round"/>
<g filter="url(#filter0_d)">
<path d="M43.35 34.4375H42.7V30.0037C42.7 29.4828 42.4928 28.9824 42.1272 28.6133L38.0687 24.5158C37.7031 24.1467 37.2075 23.9375 36.6915 23.9375H34.9V21.9688C34.9 20.8818 34.0265 20 32.95 20H19.95C18.8734 20 18 20.8818 18 21.9688V35.0938C18 36.1807 18.8734 37.0625 19.95 37.0625H20.6C20.6 39.2363 22.3469 41 24.5 41C26.6531 41 28.4 39.2363 28.4 37.0625H33.6C33.6 39.2363 35.3469 41 37.5 41C39.6531 41 41.4 39.2363 41.4 37.0625H43.35C43.7075 37.0625 44 36.7672 44 36.4062V35.0938C44 34.7328 43.7075 34.4375 43.35 34.4375ZM24.5 39.0312C23.4235 39.0312 22.55 38.1494 22.55 37.0625C22.55 35.9756 23.4235 35.0938 24.5 35.0938C25.5765 35.0938 26.45 35.9756 26.45 37.0625C26.45 38.1494 25.5765 39.0312 24.5 39.0312ZM37.5 39.0312C36.4235 39.0312 35.55 38.1494 35.55 37.0625C35.55 35.9756 36.4235 35.0938 37.5 35.0938C38.5765 35.0938 39.45 35.9756 39.45 37.0625C39.45 38.1494 38.5765 39.0312 37.5 39.0312ZM40.75 30.5H34.9V25.9062H36.6915L40.75 30.0037V30.5Z" fill="white"/>
</g>
<defs>
<filter id="filter0_d" x="8" y="10" width="46" height="41" filterUnits="userSpaceOnUse" color-interpolation-filters="sRGB">
<feFlood flood-opacity="0" result="BackgroundImageFix"/>
<feColorMatrix in="SourceAlpha" type="matrix" values="0 0 0 0 0 0 0 0 0 0 0 0 0 0 0 0 0 0 127 0"/>
<feOffset/>
<feGaussianBlur stdDeviation="5"/>
<feColorMatrix type="matrix" values="0 0 0 0 0.0941176 0 0 0 0 0.419608 0 0 0 0 0.482353 0 0 0 1 0"/>
<feBlend mode="normal" in2="BackgroundImageFix" result="effect1_dropShadow"/>
<feBlend mode="normal" in="SourceGraphic" in2="effect1_dropShadow" result="shape"/>
</filter>
</defs>
</svg>
